Coordinates
version=1
nRows=7
nColumns=42
inDegrees=yes

Units are S.I. units (second, meters, Newtons, ...)
If the header above contains a line with 'inDegrees', this indicates whether rotational values are in degrees (yes) or radians (no).

endheader
time	pelvis_tilt	pelvis_list	pelvis_rotation	pelvis_tx	pelvis_ty	pelvis_tz	hip_flexion_r	hip_adduction_r	hip_rotation_r	knee_angle_r	knee_angle_r_beta	ankle_angle_r	subtalar_angle_r	mtp_angle_r	hip_flexion_l	hip_adduction_l	hip_rotation_l	knee_angle_l	knee_angle_l_beta	ankle_angle_l	subtalar_angle_l	mtp_angle_l	lumbar_extension	lumbar_bending	lumbar_rotation	sh_tx_r	sh_ty_r	sh_tz_r	sh_plane_elev_r	sh_elev_r	sh_axial_rot_r	elbow_flex_r	pro_sup_r	sh_tx_l	sh_ty_l	sh_tz_l	sh_plane_elev_l	sh_elev_l	sh_axial_rot_l	elbow_flex_l	pro_sup_l
      0.00000000	     -5.01272739	     -1.50406379	     -0.10488847	      0.29103546	      0.93044566	     -0.03041760	      2.55950336	     -3.60206243	     -3.80583063	      7.84886923	      0.13698861	     -5.22708534	    -15.76815917	     -4.81052324	      4.33515288	     -6.02721557	     -9.20631064	      6.73486946	      0.11754565	      8.32656741	     -8.09609061	     -4.81052324	      1.63301367	      2.03575998	      0.36676125	     -0.00672190	     -0.01569343	     -0.00554285	      8.47619450	      5.56659096	     -0.43446687	     29.90770146	     80.50871439	     -0.00754771	     -0.01461654	     -0.00521298	     16.31776092	      5.63509497	     -0.59945964	     23.87506210	     71.58537494
      0.01666670	     -6.49524439	     -0.90274594	     -0.62077258	      0.29295846	      0.92941377	     -0.03046263	      4.00884026	     -4.42722489	     -4.22539217	      6.93551166	      0.12104751	     -1.09464674	    -10.15226548	     -5.92383924	      5.97023595	     -5.23748805	    -10.89335312	      5.78470216	      0.10096210	      8.27899434	     -6.02575339	     -5.92383924	      4.06125951	      1.71855444	      0.54860120	     -0.00904450	     -0.01706128	     -0.00616189	      1.93176469	      4.20737721	      0.36875285	     30.37222962	     81.79179679	     -0.00881897	     -0.01578504	     -0.00548649	      9.07623852	      3.95758559	     -1.01604594	     23.46522185	     74.11204544
      0.03333330	     -6.77329268	     -0.17653450	     -1.04497948	      0.29275826	      0.92802718	     -0.02955975	      4.06541353	     -5.43529283	     -5.05029561	      6.14246060	      0.10720616	     -0.23862304	     -8.19561771	     -6.00842684	      5.87912533	     -4.55133077	    -12.50709374	      5.00955173	      0.08743317	      7.87569783	     -4.50376185	     -6.00842684	      4.49584893	      0.80476319	      0.92979017	     -0.00981608	     -0.01692946	     -0.00605629	      1.35606647	      3.61163680	     -0.94238931	     30.75469532	     80.92284546	     -0.00995857	     -0.01558033	     -0.00535672	      9.05679981	      4.22299279	     -1.52479369	     23.38378042	     73.68247425
      0.05000000	     -6.54256808	      0.39188158	     -1.20210187	      0.29287406	      0.92620118	     -0.02960101	      3.75739757	     -6.23743990	     -5.27553303	      5.63392004	      0.09833045	      0.61615128	     -7.39167971	     -6.30639940	      5.02514540	     -3.76297141	    -13.02713786	      3.90890571	      0.06822327	      7.25705536	     -4.48864348	     -6.30639940	      4.31728047	      0.13153052	      1.02268286	     -0.00961889	     -0.01730190	     -0.00595648	      1.99677399	      3.54615230	     -1.39594363	     30.49776599	     78.75165351	     -0.01175245	     -0.01616020	     -0.00517461	     10.24773216	      4.60812624	     -1.84433789	     23.13895390	     72.36334365
      0.06666670	     -6.35706461	      0.64680366	     -1.29858230	      0.29282715	      0.92671002	     -0.02937967	      3.24761770	     -6.49752212	     -5.52126340	      4.74290022	      0.08277922	      0.94756979	     -7.13424690	     -6.48097184	      4.25488898	     -3.37261153	    -13.26550530	      2.84959083	      0.04973474	      6.92239076	     -4.12909666	     -6.48097184	      4.15650177	     -0.15284136	      1.23462059	     -0.00883800	     -0.01743330	     -0.00586872	      2.59538958	      3.70633779	     -0.95293782	     30.63918943	     77.74706622	     -0.01205352	     -0.01622499	     -0.00504579	     10.90444025	      4.80061291	     -1.48074658	     23.16356502	     71.80435782
      0.08333330	     -6.26080967	      0.76882656	     -1.30163051	      0.29293312	      0.92476967	     -0.02974769	      2.93171558	     -6.53574825	     -5.48497361	      4.16604179	      0.07271115	      1.36530430	     -7.15411473	     -6.64687358	      3.86172344	     -3.17193969	    -13.22489049	      2.26282269	      0.03949371	      6.83583866	     -4.03085032	     -6.64687358	      4.14518666	     -0.27098338	      1.52728003	     -0.00749793	     -0.01758351	     -0.00571466	      3.68167676	      4.00946112	     -0.61728921	     30.32507992	     76.58359804	     -0.01099673	     -0.01641725	     -0.00496484	     11.55198972	      4.83767588	     -1.49785438	     23.21560732	     70.90885218
      0.10000000	     -6.18355007	      0.83364770	     -1.21491516	      0.29281129	      0.92510143	     -0.02961801	      2.63507152	     -6.51474223	     -5.56928746	      3.75379582	      0.06551610	      1.70935960	     -7.29919873	     -6.78604316	      3.59647663	     -3.07665842	    -13.16225496	      1.88318792	      0.03286783	      6.71397218	     -3.84658521	     -6.78604316	      4.09222964	     -0.39332643	      1.63469106	     -0.00601667	     -0.01763145	     -0.00561165	      4.48275811	      4.18668091	      0.02388745	     30.02882205	     75.70334207	     -0.01014312	     -0.01643854	     -0.00491635	     11.78224603	      4.87445164	     -1.31723364	     23.47136037	     70.19266577
